<svg width="40" height="39" viewBox="0 0 40 39" fill="none" xmlns="http://www.w3.org/2000/svg">
<path id="Vector" d="M20 0C17.3736 0 14.7728 0.515416 12.3463 1.51682C9.91982 2.51822 7.71504 3.986 5.85786 5.83635C2.10714 9.57331 0 14.6417 0 19.9266C0 28.7341 5.74 36.2066 13.68 38.8568C14.68 39.0162 15 38.3985 15 37.8605V34.4929C9.46 35.6885 8.28 31.8227 8.28 31.8227C7.36 29.5112 6.06 28.8935 6.06 28.8935C4.24 27.6581 6.2 27.6979 6.2 27.6979C8.2 27.8374 9.26 29.7504 9.26 29.7504C11 32.7792 13.94 31.8825 15.08 31.4043C15.26 30.109 15.78 29.2323 16.34 28.7341C11.9 28.2359 7.24 26.5223 7.24 18.9302C7.24 16.7184 8 14.9449 9.3 13.5301C9.1 13.032 8.4 10.9596 9.5 8.26952C9.5 8.26952 11.18 7.73151 15 10.302C16.58 9.86365 18.3 9.64446 20 9.64446C21.7 9.64446 23.42 9.86365 25 10.302C28.82 7.73151 30.5 8.26952 30.5 8.26952C31.6 10.9596 30.9 13.032 30.7 13.5301C32 14.9449 32.76 16.7184 32.76 18.9302C32.76 26.5422 28.08 28.216 23.62 28.7142C24.34 29.3319 25 30.5474 25 32.4006V37.8605C25 38.3985 25.32 39.0361 26.34 38.8568C34.28 36.1866 40 28.7341 40 19.9266C40 17.3098 39.4827 14.7186 38.4776 12.301C37.4725 9.88339 35.9993 7.68671 34.1421 5.83635C32.285 3.986 30.0802 2.51822 27.6537 1.51682C25.2272 0.515416 22.6264 0 20 0Z" fill="white"/>
</svg>
