<svg width="40" height="40" viewBox="0 0 40 40" fill="none" xmlns="http://www.w3.org/2000/svg">
<g id="Group">
<path id="Vector" d="M20 36.6666C29.205 36.6666 36.6667 29.2049 36.6667 19.9999C36.6667 10.7949 29.205 3.33325 20 3.33325C10.795 3.33325 3.33333 10.7949 3.33333 19.9999C3.33333 26.6766 7.25999 32.4366 12.93 35.0966L16.7467 17.1533C16.8444 16.7269 17.1059 16.356 17.4747 16.1207C17.8435 15.8855 18.29 15.8046 18.7179 15.8956C19.1457 15.9866 19.5207 16.2422 19.7618 16.6072C20.0029 16.9722 20.0909 17.4173 20.0067 17.8466C19.55 19.9999 19.15 20.8333 19.1683 21.8333C19.1967 23.3999 19.6233 24.2366 20.0367 24.6699C20.4583 25.1116 21.0667 25.3499 21.8617 25.3366C22.6733 25.3199 23.5917 25.0349 24.405 24.5216C25.985 23.5283 26.6667 21.8249 26.6667 19.9999C26.6656 19.0095 26.4438 18.0318 26.0175 17.1379C25.5912 16.2439 24.9711 15.4562 24.2022 14.8319C23.4334 14.2076 22.5351 13.7625 21.5726 13.5288C20.6102 13.2952 19.6078 13.2789 18.6383 13.4812C17.6688 13.6835 16.7565 14.0993 15.9678 14.6983C15.1791 15.2974 14.5337 16.0646 14.0787 16.9442C13.6236 17.8239 13.3703 18.7939 13.3371 19.7837C13.3039 20.7736 13.4916 21.7584 13.8867 22.6666C14.0477 23.0687 14.0459 23.5177 13.8816 23.9185C13.7173 24.3193 13.4034 24.6404 13.0065 24.8137C12.6095 24.9871 12.1607 24.999 11.755 24.8471C11.3494 24.6952 11.0188 24.3914 10.8333 23.9999C10.1699 22.4781 9.89569 20.8151 10.0355 19.1609C10.1754 17.5067 10.7249 15.9134 11.6344 14.5246C12.544 13.1358 13.785 11.9953 15.2454 11.206C16.7059 10.4167 18.3399 10.0034 20 10.0034C21.6601 10.0034 23.2941 10.4167 24.7546 11.206C26.215 11.9953 27.456 13.1358 28.3656 14.5246C29.2751 15.9134 29.8246 17.5067 29.9644 19.1609C30.1043 20.8151 29.8301 22.4781 29.1667 23.9999C28.5533 25.4133 27.4333 26.5566 26.18 27.3449C24.9217 28.1366 23.4183 28.6433 21.9217 28.6699C20.5567 28.6949 19.135 28.3166 17.99 27.3232L16.1 36.2099C17.35 36.5099 18.6567 36.6683 19.9983 36.6683L20 36.6666Z" fill="white"/>
</g>
</svg>
